<mxfile host="app.diagrams.net" agent="Mozilla/5.0 (Windows NT 10.0; Win64; x64) AppleWebKit/537.36 (KHTML, like Gecko) Chrome/128.0.0.0 Safari/537.36" version="24.7.10">
  <diagram name="Page-1" id="gOkjF9NuqwvZrVy2mdMI">
    <mxGraphModel dx="1077" dy="583" grid="1" gridSize="10" guides="1" tooltips="1" connect="1" arrows="1" fold="1" page="1" pageScale="1" pageWidth="850" pageHeight="1100" math="0" shadow="0">
      <root>
        <mxCell id="0" />
        <mxCell id="1" parent="0" />
        <mxCell id="E_3j7DGVFeyqPzr4ocT2-5" value="" style="strokeColor=#E0E3FF;shadow=1;strokeWidth=1;rounded=1;absoluteArcSize=1;arcSize=2;fillColor=#EFF4FC;dashed=1;sketch=1;curveFitting=1;jiggle=2;" vertex="1" parent="1">
          <mxGeometry x="80" y="90" width="280" height="320" as="geometry" />
        </mxCell>
        <mxCell id="E_3j7DGVFeyqPzr4ocT2-6" value="Kubernetes" style="sketch=0;dashed=0;connectable=0;html=1;fillColor=#5184F3;strokeColor=none;shape=mxgraph.gcp2.kubernetes_logo;part=1;labelPosition=right;verticalLabelPosition=middle;align=left;verticalAlign=middle;spacingLeft=5;fontColor=#999999;fontSize=12;" vertex="1" parent="E_3j7DGVFeyqPzr4ocT2-5">
          <mxGeometry width="45" height="43.65" relative="1" as="geometry">
            <mxPoint x="5" y="7.675000000000001" as="offset" />
          </mxGeometry>
        </mxCell>
        <mxCell id="E_3j7DGVFeyqPzr4ocT2-12" style="edgeStyle=orthogonalEdgeStyle;rounded=1;orthogonalLoop=1;jettySize=auto;html=1;entryX=0;entryY=0.5;entryDx=0;entryDy=0;flowAnimation=1;fillColor=#e1d5e7;strokeColor=#8F8F8F;dashed=1;curved=0;" edge="1" parent="E_3j7DGVFeyqPzr4ocT2-5" source="E_3j7DGVFeyqPzr4ocT2-8" target="E_3j7DGVFeyqPzr4ocT2-9">
          <mxGeometry relative="1" as="geometry" />
        </mxCell>
        <mxCell id="E_3j7DGVFeyqPzr4ocT2-8" value="WEB APP" style="shape=ext;double=1;rounded=0;whiteSpace=wrap;html=1;fillColor=#f8cecc;strokeColor=#b85450;gradientColor=#ea6b66;" vertex="1" parent="E_3j7DGVFeyqPzr4ocT2-5">
          <mxGeometry x="20" y="220" width="80" height="50" as="geometry" />
        </mxCell>
        <mxCell id="E_3j7DGVFeyqPzr4ocT2-9" value="" style="shape=ext;double=1;rounded=0;whiteSpace=wrap;html=1;" vertex="1" parent="E_3j7DGVFeyqPzr4ocT2-5">
          <mxGeometry x="150" y="80" width="50" height="50" as="geometry" />
        </mxCell>
        <mxCell id="E_3j7DGVFeyqPzr4ocT2-11" value="" style="shape=image;verticalLabelPosition=bottom;verticalAlign=top;imageAspect=0;aspect=fixed;image=data:image/svg+xml,PHN2ZyB4bWxucz0iaHR0cDovL3d3dy53My5vcmcvMjAwMC9zdmciIGhlaWdodD0iMjUwMCIgd2lkdGg9IjI1MDAiIHZpZXdCb3g9IjAgMCA4MCA4MCIgaWQ9IkxheWVyXzEiPjxzdHlsZT4uc3Qwe2ZpbGw6I2YzYmQxOX0uc3Qxe2ZpbGw6IzIzMWYyMH0uc3Qye2ZpbGw6IzNlYmViMH0uc3Qze2ZpbGw6IzM3YTU5NX0uc3Q0e2ZpbGw6bm9uZX08L3N0eWxlPjxwYXRoIGQ9Ik00MS4xIDQxLjlIMTUuNlYxMi41aDcuN2M5LjkgMCAxNy44IDggMTcuOCAxNy44djExLjZ6IiBjbGFzcz0ic3QwIi8+PHBhdGggZD0iTTQxLjEgNjcuNWMtMTQuMSAwLTI1LjYtMTEuNC0yNS42LTI1LjZoMjUuNnYyNS42eiIgY2xhc3M9InN0MSIvPjxwYXRoIGQ9Ik00MS4xIDQxLjloMjMuM3YyNS42SDQxLjF6IiBjbGFzcz0ic3QyIi8+PHBhdGggZD0iTTQxLjEgNDEuOWg1LjR2MjUuNmgtNS40eiIgY2xhc3M9InN0MyIvPjxwYXRoIGQ9Ik0wIDBoODB2ODBIMHoiIGNsYXNzPSJzdDQiLz48L3N2Zz4=" vertex="1" parent="E_3j7DGVFeyqPzr4ocT2-5">
          <mxGeometry x="150" y="80" width="50" height="50" as="geometry" />
        </mxCell>
        <mxCell id="E_3j7DGVFeyqPzr4ocT2-20" value="" style="rounded=0;whiteSpace=wrap;html=1;fillColor=#FAEFED;strokeColor=#AEA5A5;fillStyle=auto;dashed=1;sketch=1;curveFitting=1;jiggle=2;shadow=1;" vertex="1" parent="1">
          <mxGeometry x="420" y="110" width="230" height="280" as="geometry" />
        </mxCell>
        <mxCell id="E_3j7DGVFeyqPzr4ocT2-27" value="" style="shape=ext;double=1;rounded=0;whiteSpace=wrap;html=1;" vertex="1" parent="1">
          <mxGeometry x="510" y="245" width="50" height="50" as="geometry" />
        </mxCell>
        <mxCell id="E_3j7DGVFeyqPzr4ocT2-28" value="" style="shape=ext;double=1;rounded=0;whiteSpace=wrap;html=1;" vertex="1" parent="1">
          <mxGeometry x="510" y="170" width="50" height="50" as="geometry" />
        </mxCell>
        <mxCell id="E_3j7DGVFeyqPzr4ocT2-30" value="" style="shape=image;verticalLabelPosition=bottom;verticalAlign=top;imageAspect=0;aspect=fixed;image=data:image/svg+xml,PHN2ZyB4bWxucz0iaHR0cDovL3d3dy53My5vcmcvMjAwMC9zdmciIGZpbGwtcnVsZT0iZXZlbm9kZCIgaGVpZ2h0PSI2NCIgd2lkdGg9IjY0IiB2aWV3Qm94PSIwIDAgNjQgNjQiPjxwYXRoIGZpbGw9IiMzNDM3NDEiIGQ9Ik03IDI0djMzLjU4bDIzLjg3LTI3LjVBNDkuODIgNDkuODIgMCAwIDAgNyAyNHoiLz48cGF0aCBmaWxsPSIjZjA0ZTk4IiBkPSJNNyAwdjI0YTQ5LjgyIDQ5LjgyIDAgMCAxIDIzLjg3IDYuMDlMNTcgMHoiLz48cGF0aCBmaWxsPSIjMDBiZmIzIiBkPSJNMzYgMzMuM0w5LjM3IDY0SDU2YTUwIDUwIDAgMCAwLTIwLTMwLjY5eiIvPjwvc3ZnPg==" vertex="1" parent="1">
          <mxGeometry x="516.75" y="176.75" width="36.5" height="36.5" as="geometry" />
        </mxCell>
        <mxCell id="E_3j7DGVFeyqPzr4ocT2-32" value="" style="shape=image;verticalLabelPosition=bottom;verticalAlign=top;imageAspect=0;aspect=fixed;image=data:image/svg+xml,PHN2ZyB4bWxucz0iaHR0cDovL3d3dy53My5vcmcvMjAwMC9zdmciIGhlaWdodD0iNjQiIHdpZHRoPSI2NCIgdmlld0JveD0iMCAwIDMyIDMyIj48cGF0aCBmaWxsPSIjZmZmIiBkPSJNMzIgMTYuNzdjMC0yLjY3OC0xLjY2NC01LjAzLTQuMTY2LTUuOTM3YTkuMTQgOS4xNCAwIDAgMCAuMTYyLTEuNzE4YzAtNS00LjA1Ny05LjA0OC05LjAzNS05LjA0OC0yLjkyIDAtNS42MjYgMS4zOTMtNy4zMyAzLjc0NmE0Ljc4IDQuNzggMCAwIDAtMi45MzUtMWMtMi42NSAwLTQuOCAyLjE1LTQuOCA0LjggMCAuNTgyLjEwOCAxLjE1LjI5OCAxLjY3N0E2LjM2IDYuMzYgMCAwIDAgMCAxNS4yNDNhNi4zMSA2LjMxIDAgMCAwIDQuMTc5IDUuOTUxIDkuMDIgOS4wMiAwIDAgMC0uMTYyIDEuNzE4IDkuMDMgOS4wMyAwIDAgMCA5LjAyMSA5LjAyMWMyLjkyIDAgNS42MjYtMS40MDcgNy4zMTctMy43Ni44NC42NjMgMS44NjYgMS4wMjggMi45MzUgMS4wMjggMi42NSAwIDQuOC0yLjE1IDQuOC00LjggMC0uNTgyLS4xMDgtMS4xNS0uMjk4LTEuNjc3QTYuMzcgNi4zNyAwIDAgMCAzMiAxNi43NzEiLz48cGF0aCBmaWxsPSIjZmVkMTBhIiBkPSJNMTIuNTc4IDEzLjc5NWw3LjAwNiAzLjE5MiA3LjA2LTYuMTk0YTcuNCA3LjQgMCAwIDAgLjE0OS0xLjU1NSA3LjkxIDcuOTEgMCAwIDAtNy44OTktNy44OTkgNy44OSA3Ljg5IDAgMCAwLTYuNTA1IDMuNDM1bC0xLjE3NyA2LjF6Ii8+PHBhdGggZmlsbD0iIzI0YmJiMSIgZD0iTTUuMzMgMjEuMjA3YTcuNjYgNy42NiAwIDAgMC0uMTUgMS41ODJjMCA0LjM3IDMuNTU3IDcuOTEyIDcuOTI2IDcuOTEyYTcuOTIgNy45MiAwIDAgMCA2LjU0Ni0zLjQ2MmwxLjE2My02LjA3My0xLjU1NS0yLjk3NS03LjAzMy0zLjIwNXoiLz48cGF0aCBmaWxsPSIjZWY1MDk4IiBkPSJNNS4yODggOS4wOWw0LjggMS4xMzYgMS4wNTUtNS40NWMtLjY1LS41LTEuNDYtLjc3LTIuMy0uNzdBMy43OSAzLjc5IDAgMCAwIDUuMDU4IDcuNzljMCAuNDQ2LjA4Ljg5My4yMyAxLjI5OCIvPjxwYXRoIGZpbGw9IiMxN2E4ZTAiIGQ9Ik00Ljg3IDEwLjIzOGMtMi4xMzcuNzAzLTMuNjM4IDIuNzYtMy42MzggNS4wMTggMCAyLjIwNSAxLjM2NiA0LjE2NiAzLjQwOCA0Ljk1bDYuNzM1LTYuMDg2LTEuMjMtMi42Mzd6Ii8+PHBhdGggZmlsbD0iIzkzYzgzZSIgZD0iTTIwLjg3IDI3LjI0YTMuOCAzLjggMCAwIDAgMi4yODYuNzg0IDMuNzkgMy43OSAwIDAgMCAzLjc4Ny0zLjc4NyAzLjgyIDMuODIgMCAwIDAtLjIzLTEuMzEybC00Ljc4OC0xLjEyM3oiLz48cGF0aCBmaWxsPSIjMDc3OWExIiBkPSJNMjEuODQzIDIwLjU0NGw1LjI3NSAxLjIzYTUuMzMgNS4zMyAwIDAgMCAzLjYzOC01LjAzMSA1LjI5IDUuMjkgMCAwIDAtMy40MDgtNC45MzdsLTYuODk4IDYuMDQ2eiIvPjwvc3ZnPg==" vertex="1" parent="1">
          <mxGeometry x="516.75" y="250" width="40" height="40" as="geometry" />
        </mxCell>
        <mxCell id="E_3j7DGVFeyqPzr4ocT2-34" style="edgeStyle=orthogonalEdgeStyle;rounded=1;orthogonalLoop=1;jettySize=auto;html=1;flowAnimation=1;strokeColor=#787878;dashed=1;curved=0;" edge="1" parent="1" source="E_3j7DGVFeyqPzr4ocT2-11" target="E_3j7DGVFeyqPzr4ocT2-35">
          <mxGeometry relative="1" as="geometry">
            <Array as="points">
              <mxPoint x="330" y="195" />
              <mxPoint x="330" y="347" />
            </Array>
          </mxGeometry>
        </mxCell>
        <mxCell id="E_3j7DGVFeyqPzr4ocT2-35" value="" style="shadow=0;dashed=0;html=1;labelPosition=center;verticalLabelPosition=bottom;verticalAlign=top;align=center;outlineConnect=0;shape=mxgraph.veeam.3d.datastore_volume;" vertex="1" parent="1">
          <mxGeometry x="510" y="330" width="54" height="34" as="geometry" />
        </mxCell>
      </root>
    </mxGraphModel>
  </diagram>
</mxfile>
